<?xml version="1.0" standalone="no"?><!DOCTYPE svg PUBLIC "-//W3C//DTD SVG 1.1//EN" "http://www.w3.org/Graphics/SVG/1.1/DTD/svg11.dtd"><svg t="1533605010519" class="icon" style="" viewBox="0 0 1024 1024" version="1.1" xmlns="http://www.w3.org/2000/svg" p-id="3674" xmlns:xlink="http://www.w3.org/1999/xlink" width="200" height="200"><defs><style type="text/css"></style></defs><path d="M1009.960797 288.379946L526.414949 3.937598a28.364364 28.364364 0 0 0-28.835397 0L14.033704 288.379946A28.425803 28.425803 0 0 0 0.00512 312.89413v682.659587A28.425803 28.425803 0 0 0 28.451403 1023.98976h967.091696a28.425803 28.425803 0 0 0 28.446282-28.436043V312.89413a28.425803 28.425803 0 0 0-14.028584-24.514184z m-42.863981 678.727488H56.897686v-637.942194L511.997251 61.444554l455.099565 267.710446z" p-id="3675"></path><path d="M199.10862 455.115304a28.436043 28.436043 0 0 0 28.446283 28.446283h568.884696a28.446283 28.446283 0 1 0 0-56.892566H227.554903a28.436043 28.436043 0 0 0-28.446283 28.446283zM796.439599 597.336478H227.554903a28.446283 28.446283 0 1 0 0 56.892565h568.884696a28.446283 28.446283 0 1 0 0-56.892565zM796.439599 767.993695H227.554903a28.446283 28.446283 0 0 0 0 56.892565h568.884696a28.446283 28.446283 0 1 0 0-56.892565z" p-id="3676"></path></svg>