<?xml version="1.0" standalone="no"?><!DOCTYPE svg PUBLIC "-//W3C//DTD SVG 1.1//EN" "http://www.w3.org/Graphics/SVG/1.1/DTD/svg11.dtd"><svg t="1533604894775" class="icon" style="" viewBox="0 0 1024 1024" version="1.1" xmlns="http://www.w3.org/2000/svg" p-id="3088" xmlns:xlink="http://www.w3.org/1999/xlink" width="200" height="200"><defs><style type="text/css"></style></defs><path d="M995.55328 967.10656h-71.10656V398.22336a113.89952 113.89952 0 0 0-113.77664-113.77664h-85.34016V113.77664A113.89952 113.89952 0 0 0 611.55328 0H213.32992A113.89952 113.89952 0 0 0 99.55328 113.77664v853.32992H28.44672a28.44672 28.44672 0 0 0 0 56.89344h967.10656a28.44672 28.44672 0 0 0 0-56.89344z m-839.10656 0V113.77664a56.95488 56.95488 0 0 1 56.89344-56.89344h398.21312a56.95488 56.95488 0 0 1 56.89344 56.89344v853.32992h-512z m568.89344 0V341.32992h85.32992a56.95488 56.95488 0 0 1 56.89344 56.89344v568.8832z" p-id="3089"></path><path d="M469.32992 284.44672h113.77664a28.44672 28.44672 0 1 0 0-56.89344H469.32992a28.44672 28.44672 0 0 0 0 56.89344zM355.55328 227.55328H241.77664a28.44672 28.44672 0 1 0 0 56.89344h113.77664a28.44672 28.44672 0 1 0 0-56.89344zM469.32992 455.10656h113.77664a28.44672 28.44672 0 1 0 0-56.89344H469.32992a28.44672 28.44672 0 0 0 0 56.89344zM355.55328 398.22336H241.77664a28.44672 28.44672 0 1 0 0 56.89344h113.77664a28.44672 28.44672 0 1 0 0-56.89344zM611.55328 597.32992a28.43648 28.43648 0 0 0-28.44672-28.44672H469.32992a28.44672 28.44672 0 0 0 0 56.89344h113.77664a28.43648 28.43648 0 0 0 28.44672-28.44672zM355.55328 568.89344H241.77664a28.44672 28.44672 0 1 0 0 56.89344h113.77664a28.44672 28.44672 0 1 0 0-56.89344z" p-id="3090"></path></svg>