<?xml version="1.0" standalone="no"?><!DOCTYPE svg PUBLIC "-//W3C//DTD SVG 1.1//EN" "http://www.w3.org/Graphics/SVG/1.1/DTD/svg11.dtd"><svg t="1533604944378" class="icon" style="" viewBox="0 0 1417 1024" version="1.1" xmlns="http://www.w3.org/2000/svg" p-id="3321" xmlns:xlink="http://www.w3.org/1999/xlink" width="276.7578125" height="200"><defs><style type="text/css"></style></defs><path d="M1225.929 868.966h-77.292l-32.453-64.909h44.838c17.923 0 32.453-14.53 32.453-32.453s-14.53-32.453-32.453-32.453h-64.897v-454.313h64.909c17.923 0 32.453-14.53 32.453-32.453s-14.53-32.453-32.453-32.453h-162.26v-97.351c0-0.007 0-0.015 0-0.022 0-17.91-14.519-32.431-32.431-32.431-0.007 0-0.017 0-0.025 0h-584.127c-0.007 0-0.015 0-0.023 0-17.91 0-32.431 14.519-32.431 32.431 0 0.007 0 0.017 0 0.025v97.349h-162.26c-17.923 0-32.453 14.53-32.453 32.453s14.53 32.453 32.453 32.453h64.909v454.313h-64.909c-17.923 0-32.453 14.53-32.453 32.453s14.53 32.453 32.453 32.453h44.838l-32.453 64.909h-77.28c-17.923 0-32.453 14.53-32.453 32.453s14.53 32.453 32.453 32.453h1103.348c17.923 0 32.453-14.53 32.453-32.453s-14.53-32.453-32.453-32.453zM414.643 155.022h519.22v64.909h-519.22zM382.189 284.839h649.036v454.313h-129.817v-292.064c0-17.923-14.53-32.453-32.453-32.453s-32.453 14.53-32.453 32.453v292.064h-129.793v-292.064c0-17.923-14.53-32.453-32.453-32.453s-32.453 14.53-32.453 32.453v292.064h-129.804v-292.064c0-17.923-14.53-32.453-32.453-32.453s-32.453 14.53-32.453 32.453v292.064h-129.804v-454.313zM272.443 868.966l32.453-64.909h738.711l32.453 64.909z" p-id="3322"></path></svg>