<?xml version="1.0" standalone="no"?><!DOCTYPE svg PUBLIC "-//W3C//DTD SVG 1.1//EN" "http://www.w3.org/Graphics/SVG/1.1/DTD/svg11.dtd"><svg t="1533605177391" class="icon" style="" viewBox="0 0 1024 1024" version="1.1" xmlns="http://www.w3.org/2000/svg" p-id="4020" xmlns:xlink="http://www.w3.org/1999/xlink" width="200" height="200"><defs><style type="text/css"></style></defs><path d="M984.22 956.44H67.56V39.78a27.78 27.78 0 0 0-55.56 0v944.44A27.76 27.76 0 0 0 39.78 1012h944.44a27.78 27.78 0 0 0 0-55.56z" p-id="4021"></path><path d="M150.89 720.33a27.69 27.69 0 0 0 19.64-8.14L421.72 461l160.92 160.92a27.77 27.77 0 0 0 39.28 0l270.83-270.84a27.77 27.77 0 0 0-39.28-39.28L602.28 563 441.36 402.08a27.77 27.77 0 0 0-39.28 0L131.25 672.92a27.78 27.78 0 0 0 19.64 47.42z" p-id="4022"></path></svg>