<?xml version="1.0" standalone="no"?><!DOCTYPE svg PUBLIC "-//W3C//DTD SVG 1.1//EN" "http://www.w3.org/Graphics/SVG/1.1/DTD/svg11.dtd"><svg t="1533605222977" class="icon" style="" viewBox="0 0 1024 1024" version="1.1" xmlns="http://www.w3.org/2000/svg" p-id="4136" xmlns:xlink="http://www.w3.org/1999/xlink" width="200" height="200"><defs><style type="text/css"></style></defs><path d="M512 539.79h472.21A27.76 27.76 0 0 0 1012 512c0-275.69-224.31-500-500-500a27.76 27.76 0 0 0-27.78 27.8V512A27.76 27.76 0 0 0 512 539.79z m27.77-471.35c223 13.81 402 192.81 415.79 415.79H539.77z" p-id="4137"></path><path d="M992.38 616.83a27.82 27.82 0 0 0-34.72 18.39c-59.05 192.14-233.86 321.23-435 321.23-250.95 0-455.1-204.15-455.1-455.1 0-201.14 129.09-375.95 321.23-435a27.78 27.78 0 0 0-16.33-53.11C156.86 79.51 12 275.66 12 501.35 12 782.93 241.08 1012 522.66 1012c225.69 0 421.84-144.86 488.11-360.46a27.8 27.8 0 0 0-18.39-34.71z" p-id="4138"></path></svg>