<?xml version="1.0" standalone="no"?><!DOCTYPE svg PUBLIC "-//W3C//DTD SVG 1.1//EN" "http://www.w3.org/Graphics/SVG/1.1/DTD/svg11.dtd"><svg t="1533605589071" class="icon" style="" viewBox="0 0 1024 1024" version="1.1" xmlns="http://www.w3.org/2000/svg" p-id="4945" xmlns:xlink="http://www.w3.org/1999/xlink" width="200" height="200"><defs><style type="text/css"></style></defs><path d="M900.89 67.56H123.11A111.23 111.23 0 0 0 12 178.67v666.66a111.22 111.22 0 0 0 111.11 111.11h777.78A111.22 111.22 0 0 0 1012 845.33V178.67A111.23 111.23 0 0 0 900.89 67.56z m55.56 527.78H512a55.62 55.62 0 0 1-55.56-55.56v-55.56A55.62 55.62 0 0 1 512 428.67h444.44zM512 373.11a111.23 111.23 0 0 0-111.11 111.11v55.56A111.23 111.23 0 0 0 512 650.89h444.44v194.44a55.63 55.63 0 0 1-55.56 55.56H123.11a55.63 55.63 0 0 1-55.56-55.56V178.67a55.62 55.62 0 0 1 55.56-55.56h777.78a55.62 55.62 0 0 1 55.56 55.56v194.44z" p-id="4946"></path><path d="M539.78 512m-55.56 0a55.56 55.56 0 1 0 111.12 0 55.56 55.56 0 1 0-111.12 0Z" p-id="4947"></path></svg>