<?xml version="1.0" standalone="no"?><!DOCTYPE svg PUBLIC "-//W3C//DTD SVG 1.1//EN" "http://www.w3.org/Graphics/SVG/1.1/DTD/svg11.dtd"><svg t="1533604925623" class="icon" style="" viewBox="0 0 1024 1024" version="1.1" xmlns="http://www.w3.org/2000/svg" p-id="3204" xmlns:xlink="http://www.w3.org/1999/xlink" width="200" height="200"><defs><style type="text/css"></style></defs><path d="M640.829357 249.303008A128.829423 128.829423 0 1 0 511.999933 378.142671a129.023983 129.023983 0 0 0 128.829424-128.839663z m-200.775654 0A71.946231 71.946231 0 1 1 511.999933 321.249238a72.028151 72.028151 0 0 1-71.94623-71.94623z" p-id="3205"></path><path d="M511.999933 739.553184a28.467196 28.467196 0 0 0 23.859197-12.943358c23.060477-35.502075 225.443811-350.545874 225.443811-477.306818C761.302941 111.831025 649.471916 0 511.999933 0S262.696926 111.831025 262.696926 249.303008c0 126.760944 202.393574 441.804743 225.443811 477.306818a28.467196 28.467196 0 0 0 23.859196 12.943358z m0-682.669991c106.106866 0 192.419815 86.323189 192.419815 192.419815 0 82.524149-122.664944 296.683481-192.419815 408.739786C442.224583 545.996729 319.580118 331.878357 319.580118 249.303008c0-106.096626 86.312949-192.409575 192.419815-192.409575z" p-id="3206"></path><path d="M1013.831548 234.20925a28.528636 28.528636 0 0 0-23.224317-6.22592L819.947413 258.047966a28.446716 28.446716 0 0 0 9.891839 56.023033l137.277422-24.207357v624.936879L675.420072 966.246274 360.191953 854.947729a28.671996 28.671996 0 0 0-14.417918-1.16736L56.893433 904.744842V279.859164l147.16926-25.968637a28.446716 28.446716 0 0 0-9.891838-56.023033L23.500797 227.98333A28.456956 28.456956 0 0 0 0 255.999967v682.669991a28.375036 28.375036 0 0 0 10.168319 21.780477A27.934716 27.934716 0 0 0 33.392636 966.655874l314.920919-55.582712L663.551914 1022.392187a28.999676 28.999676 0 0 0 9.471999 1.60768 27.054076 27.054076 0 0 0 4.945919-0.44032l322.559958-56.893433a28.426236 28.426236 0 0 0 23.470077-27.996156V255.999967a28.446716 28.446716 0 0 0-10.168319-21.790717z" p-id="3207"></path></svg>