<?xml version="1.0" standalone="no"?><!DOCTYPE svg PUBLIC "-//W3C//DTD SVG 1.1//EN" "http://www.w3.org/Graphics/SVG/1.1/DTD/svg11.dtd"><svg t="1533604975198" class="icon" style="" viewBox="0 0 1084 1024" version="1.1" xmlns="http://www.w3.org/2000/svg" p-id="3436" xmlns:xlink="http://www.w3.org/1999/xlink" width="211.71875" height="200"><defs><style type="text/css"></style></defs><path d="M907.297 370.822h-734.119c-77.842 0-141.178 63.337-141.178 141.178s63.337 141.178 141.178 141.178h734.119c77.842 0 141.178-63.337 141.178-141.178s-63.337-141.178-141.178-141.178zM907.297 596.703h-734.119c0 0 0 0 0 0-46.783 0-84.708-37.925-84.708-84.708 0-46.783 37.925-84.708 84.708-84.708 0 0 0 0 0 0h734.119c46.783 0 84.708 37.925 84.708 84.708s-37.925 84.708-84.708 84.708z" p-id="3437"></path><path d="M850.822 512c0 23.393 18.964 42.356 42.356 42.356s42.356-18.964 42.356-42.356c0-23.393-18.964-42.356-42.356-42.356-23.392 0-42.356 18.964-42.356 42.356z" p-id="3438"></path><path d="M173.178 314.356h734.119c77.842 0 141.178-63.337 141.178-141.178s-63.337-141.178-141.178-141.178h-734.119c-77.842 0-141.178 63.337-141.178 141.178s63.337 141.178 141.178 141.178zM173.178 88.475h734.119c46.783 0 84.708 37.925 84.708 84.708 0 46.783-37.925 84.708-84.708 84.708h-734.119c0 0 0 0 0 0-46.783 0-84.708-37.925-84.708-84.708 0-46.783 37.925-84.708 84.708-84.708 0 0 0 0 0 0z" p-id="3439"></path><path d="M850.822 173.178c0 23.392 18.964 42.356 42.356 42.356s42.356-18.964 42.356-42.356c0-23.392-18.964-42.356-42.356-42.356-23.392 0-42.356 18.964-42.356 42.356z" p-id="3440"></path><path d="M907.297 709.644h-734.119c-77.842 0-141.178 63.337-141.178 141.178s63.337 141.178 141.178 141.178h734.119c77.842 0 141.178-63.337 141.178-141.178s-63.337-141.178-141.178-141.178zM907.297 935.525h-734.119c-46.783 0-84.708-37.925-84.708-84.708s37.925-84.708 84.708-84.708h734.119c46.783 0 84.708 37.925 84.708 84.708s-37.925 84.708-84.708 84.708z" p-id="3441"></path><path d="M850.822 850.832c0 23.393 18.964 42.356 42.356 42.356s42.356-18.964 42.356-42.356c0-23.392-18.964-42.356-42.356-42.356-23.392 0-42.356 18.964-42.356 42.356z" p-id="3442"></path></svg>